<svg xmlns="http://www.w3.org/2000/svg" width="103" height="60" viewBox="0 0 103 60" fill="none">
    <path opacity="0.6"
        d="M93.9873 12.6127L88.5128 19.9032C89.2427 20.6323 89.6077 21.7258 90.3376 22.4549L102.746 25.3712V34.8489L89.9726 37.7651C89.2427 38.4942 88.8777 39.5878 88.1478 40.3168L93.2573 47.6074L81.5785 54.1689L68.8047 51.2527C67.3449 51.6172 65.885 51.9817 64.4251 52.3462L59.3157 59.6368H42.8923L37.4178 52.3462C35.9579 51.9817 34.498 51.6172 33.0382 51.2527L20.6294 54.1689L8.95053 47.6074L14.425 40.3168C13.6951 39.5878 13.3301 38.4942 12.6002 37.7651L0.191406 34.8489V25.3712L12.9652 22.0904C13.6951 21.3614 14.06 20.2678 14.79 19.5387L9.6805 12.2481L21.3594 5.68667L34.1331 8.60285C35.593 8.23832 37.0528 7.87384 38.8776 7.50931L43.9871 0.21875H60.4105L65.885 7.87375C67.3448 8.23828 68.8047 8.60287 70.2646 8.9674L82.6733 6.05111L93.9873 12.6127Z"
        fill="#002143" />
</svg>