<svg xmlns="http://www.w3.org/2000/svg" width="103" height="61" viewBox="0 0 103 61" fill="none">
    <path opacity="0.6"
        d="M93.8026 13.2155L88.3281 20.5061C89.058 21.2351 89.423 22.3287 90.1529 23.0578L102.562 25.974V35.4517L89.7881 38.3679C89.0581 39.097 88.6932 40.1906 87.9632 40.9197L93.0727 48.2102L81.3938 54.7717L68.6201 51.8555C67.1602 52.22 65.7004 52.5845 64.2406 52.9491L59.131 60.2396H42.7076L37.2331 52.9491C35.7733 52.5845 34.3135 52.22 32.8536 51.8555L20.4449 54.7717L8.76596 47.8457L14.2404 40.5551C13.5105 39.8261 13.1455 38.7324 12.4156 38.0034L0.00683594 35.0872V25.6094L12.7806 22.3287C13.5105 21.5997 13.8755 20.5061 14.6054 19.777L9.49593 12.4865L21.1747 5.92495L33.9485 8.84119C35.4083 8.47666 36.8682 8.11212 38.6931 7.74759L43.8025 0.457031H60.2259L65.7004 8.11214C67.1603 8.47667 68.62 8.84115 70.0799 9.20568L82.4888 6.2895L93.8026 13.2155Z"
        fill="#002143" />
</svg> 