<svg xmlns="http://www.w3.org/2000/svg" width="104" height="92" viewBox="0 0 104 92" fill="none">
    <path
        d="M61.733 32.6425C56.6236 35.5588 48.2294 35.5588 42.755 32.6425C37.6455 29.7263 37.6455 24.6229 42.755 21.7067C47.8645 18.7905 56.2586 18.7905 61.733 21.7067C66.8425 24.6229 66.8425 29.3618 61.733 32.6425Z"
        fill="#A4BDD8" />
    <path
        d="M65.3833 22.7969V83.6731C65.3833 85.4958 64.2885 87.6829 61.3688 89.141C56.2593 92.0573 47.8651 92.0573 42.3906 89.141C39.8359 87.6829 38.376 85.8603 38.376 83.6731V22.7969C38.376 24.6195 39.8359 26.8067 42.3906 28.2648C47.5001 31.181 55.8943 31.181 61.3688 28.2648C64.2885 26.8067 65.3833 24.6195 65.3833 22.7969Z"
        fill="#0065CD" />
    <path d="M15.7538 19.8832V38.1096L10.2793 30.819V12.957L15.7538 19.8832Z" fill="#0058B4" />
    <path d="M94.5802 13.3242V31.5506L89.4707 38.8412V20.9793L94.5802 13.3242Z" fill="#9CCDFF" />
    <path d="M13.1939 38.1077V55.9696L0.785156 53.0533V35.1914L13.1939 38.1077Z" fill="#0058B4" />
    <path d="M103.708 35.918V54.1444L90.5694 57.0606L88.0146 46.4893L90.5694 39.1987L103.708 35.918Z"
        fill="#389AFF" />
    <path
        d="M15.0211 40.661V58.5229C14.2912 57.7938 13.9262 56.7003 13.1963 55.9712V38.1094C13.5613 39.203 14.2912 39.9319 15.0211 40.661Z"
        fill="#0065CD" />
    <path
        d="M90.5631 39.1992V57.0611C89.8332 57.7901 89.4682 58.8838 88.7383 59.6128V41.751C89.4682 40.6574 90.1981 39.9283 90.5631 39.1992Z"
        fill="#0065CD" />
    <path
        d="M38.0113 53.0545V70.9164C36.5515 70.5519 35.0917 70.1873 33.6318 69.8228V51.9609C35.0917 52.3255 36.5515 52.6899 38.0113 53.0545Z"
        fill="#0065CD" />
    <path
        d="M69.399 52.3203V70.1822C67.9392 70.5467 66.4794 70.9112 65.0195 71.2757V53.4139C66.4794 53.0493 67.9392 52.6848 69.399 52.3203Z"
        fill="#0065CD" />
    <path d="M33.6343 51.9609V69.8228L21.2256 73.1035V54.8771L33.6343 51.9609Z" fill="#389AFF" />
    <path d="M21.2258 54.8701V73.0965L9.54688 66.1704V48.3086L21.2258 54.8701Z" fill="#0058B4" />
    <path d="M82.1693 55.601V73.4629L69.3955 70.5467V52.3203L82.1693 55.601Z" fill="#0058B4" />
    <path d="M93.8518 48.6758V66.9022L82.1729 73.4636V55.6018L93.8518 48.6758Z" fill="#9CCDFF" />
    <path d="M65.0197 53.418V71.2798L59.9102 78.5704V60.7085L65.0197 53.418Z" fill="#9CCDFF" />
    <path d="M43.4881 60.7059V78.5677L38.0137 71.2772V53.0508L43.4881 60.7059Z" fill="#0058B4" />
    <path d="M59.9117 60.707V78.5689H43.4883V60.707H59.9117Z" fill="#389AFF" />
    <path
        d="M94.5809 13.3197L89.1064 20.6103C89.8364 21.3393 90.2013 22.433 90.9313 23.162L103.34 26.0782V35.556L90.5664 38.4721C89.8365 39.2012 89.4715 40.2948 88.7416 41.0239L93.851 48.3144L82.1721 54.8759L69.3984 51.9597C67.9385 52.3242 66.4787 52.6887 65.0189 53.0533L59.9093 60.3438H43.4859L38.0114 53.0533C36.5516 52.6887 35.0918 52.3242 33.6319 51.9597L21.2232 54.8759L9.54428 48.3144L15.0187 41.0239C14.2888 40.2948 13.9238 39.2012 13.1939 38.4721L0.785156 35.556V26.0782L13.5589 22.7975C14.2888 22.0684 14.6538 20.9748 15.3837 20.2457L10.2742 12.9552L21.953 6.3937L34.7268 9.30988C36.1866 8.94536 37.6466 8.58087 39.4714 8.21634L44.5809 0.925781H61.0043L66.4787 8.58089C67.9386 8.94542 69.3984 9.30991 70.8582 9.67443L83.2671 6.75825L94.5809 13.3197Z"
        fill="#7DBDFF" />
    <path
        d="M59.5429 34.4594C55.5283 37.0111 48.5939 37.0111 44.5793 34.4594C40.5647 31.9077 40.5647 28.2623 44.5793 25.7106C48.5939 23.159 55.5283 23.159 59.5429 25.7106C63.9224 28.2623 63.9224 32.2722 59.5429 34.4594Z"
        fill="#0065CD" />
</svg>