<svg xmlns="http://www.w3.org/2000/svg" width="103" height="61" viewBox="0 0 103 61" fill="none">
    <path opacity="0.6"
        d="M93.7959 13.0853L88.3214 20.3759C89.0513 21.105 89.4163 22.1985 90.1462 22.9275L102.555 25.8438V35.3216L89.7812 38.2378C89.0513 38.9668 88.6863 40.0604 87.9564 40.7895L93.0659 48.0801L81.387 54.6415L68.6132 51.7253C67.1534 52.0899 65.6936 52.4544 64.2337 52.8189L59.1243 60.1094H42.7009L37.2264 52.8189C35.7665 52.4544 34.3066 52.0899 32.8468 51.7253L20.438 54.6415L8.75912 48.0801L14.2336 40.7895C13.5037 40.0604 13.1387 38.9668 12.4088 38.2378L0 35.3216V25.8438L12.7737 22.5631C13.5037 21.834 13.8686 20.7404 14.5986 20.0114L9.48909 12.7208L21.1679 6.15933L33.9416 9.07551C35.4015 8.71098 36.8614 8.3465 38.6862 7.98197L43.7957 0.691406H60.2191L65.6936 8.34641C67.1534 8.71094 68.6133 9.07553 70.0732 9.44006L82.4819 6.52377L93.7959 13.0853Z"
        fill="#002143" />
</svg>