<svg xmlns="http://www.w3.org/2000/svg" width="156" height="142" viewBox="0 0 156 142" fill="none">
    <path
        d="M61.7428 31.7714C56.6333 34.6877 48.2392 34.6877 42.7647 31.7714C37.6552 28.8552 37.6552 23.7518 42.7647 20.8356C47.8742 17.9194 56.2684 17.9194 61.7428 20.8356C66.8523 23.7518 66.8523 28.8552 61.7428 31.7714Z"
        fill="#A4BDD8" />
    <path
        d="M65.3931 21.9258V82.802C65.3931 84.6247 64.2982 86.8118 61.3784 88.2699C56.2689 91.1862 47.8748 91.1862 42.4004 88.2699C39.8456 86.8118 38.3857 84.9892 38.3857 82.802V22.2903C38.3857 24.113 39.8456 26.3001 42.4004 27.7583C47.5099 30.6745 55.904 30.6745 61.3784 27.7583C64.2982 25.9356 65.3931 24.1129 65.3931 21.9258Z"
        fill="#0065CD" />
    <path d="M15.7635 19.3765V37.2384L10.2891 29.9478L10.654 12.0859L15.7635 19.3765Z" fill="#0058B4" />
    <path d="M94.5899 12.8203V30.6822L89.4805 37.9728V20.1109L94.5899 12.8203Z" fill="#9CCDFF" />
    <path d="M13.2037 37.2365V55.463L0.794922 52.5467V34.3203L13.2037 37.2365Z" fill="#0058B4" />
    <path d="M103.718 35.0547V53.2811L90.5791 56.1973L88.0244 45.626L90.5791 38.3354L103.718 35.0547Z"
        fill="#389AFF" />
    <path
        d="M15.0309 40.1572V58.0191C14.3009 57.29 13.936 56.1964 13.2061 55.4674V37.6055C13.571 38.3345 14.3009 39.0636 15.0309 40.1572Z"
        fill="#0065CD" />
    <path
        d="M90.5729 38.332V56.1939C89.8429 56.923 89.478 58.0166 88.748 58.7456V40.8838C89.478 40.1547 90.2079 39.0611 90.5729 38.332Z"
        fill="#0065CD" />
    <path
        d="M38.0211 52.1873V70.0493C36.5612 69.6847 35.1015 69.3202 33.6416 68.9557V51.0938C35.1015 51.4583 36.5612 51.8228 38.0211 52.1873Z"
        fill="#0065CD" />
    <path
        d="M69.4089 51.457V69.3189C67.9491 69.6834 66.4892 70.048 65.0293 70.4125V52.5506C66.4892 52.1861 67.9491 52.1861 69.4089 51.457Z"
        fill="#0065CD" />
    <path d="M33.6442 51.0938V69.3202L21.2354 72.2364V54.01L33.6442 51.0938Z" fill="#389AFF" />
    <path d="M21.2354 54.0107V72.2371L9.55664 65.3111V47.4492L21.2354 54.0107Z" fill="#0058B4" />
    <path d="M82.544 54.7378L82.179 72.5997L69.4053 69.6834V51.457L82.544 54.7378Z" fill="#0058B4" />
    <path d="M93.8615 48.1719V66.0337L82.1826 72.5952L82.5476 54.7333L93.8615 48.1719Z"
        fill="#9CCDFF" />
    <path d="M65.0294 52.5469V70.7733L59.9199 77.6993V59.8374L65.0294 52.5469Z" fill="#9CCDFF" />
    <path d="M43.4979 59.8387V77.7006L38.0234 70.41V52.1836L43.4979 59.8387Z" fill="#0058B4" />
    <path d="M59.9214 59.8359V77.6978H43.498V59.8359H59.9214Z" fill="#389AFF" />
    <path
        d="M94.5907 12.8158L89.1162 20.1064C89.8461 20.8354 90.2111 21.9291 90.941 22.6581L103.35 25.5743V35.052L90.576 37.9683C89.8461 38.6973 89.4811 39.7909 88.7512 40.52L93.8608 47.8105L82.1819 54.372L69.4082 51.4558C67.9483 51.8203 66.4884 52.1849 65.0285 52.5494L59.9191 59.84H43.4957L38.0212 52.5494C36.5614 52.1849 35.1016 51.8203 33.6417 51.4558L21.2328 54.372L9.55404 47.8105L15.0285 40.52C14.2986 39.7909 13.9336 38.6973 13.2037 37.9683L0.794922 35.052V25.5743L13.5687 22.2936C14.2986 21.5645 14.6636 20.4709 15.3935 19.7419L10.2839 12.4513L21.9628 5.8898L34.7366 8.80603C36.1964 8.4415 37.6562 8.07697 39.481 7.71244L44.5906 0.421875H61.014L66.4885 8.07699C67.9483 8.44152 69.4081 8.806 70.868 9.17053L83.2768 6.25435L94.5907 12.8158Z"
        fill="#7DBDFF" />
    <path
        d="M59.5525 33.5922C55.5379 36.1439 48.6037 36.1439 44.5891 33.5922C40.5745 31.0405 40.5745 27.3952 44.5891 24.8435C48.6037 22.2918 55.5379 22.2918 59.5525 24.8435C63.9321 27.3952 63.9321 31.405 59.5525 33.5922Z"
        fill="#0065CD" />
    <path
        d="M113.928 83.1699C108.818 86.0862 100.424 86.0862 94.9493 83.1699C89.8398 80.2537 89.8398 75.1503 94.9493 72.234C100.059 69.3178 108.453 69.3178 113.928 72.234C119.037 75.5148 119.037 80.2537 113.928 83.1699Z"
        fill="#A4BDD8" />
    <path
        d="M117.578 73.3242V134.2C117.578 136.023 116.483 138.21 113.563 139.668C108.454 142.585 100.059 142.585 94.5849 139.668C92.0302 138.21 90.5703 136.388 90.5703 134.2V73.3242C90.5703 75.1469 92.0302 77.334 94.5849 78.7921C99.6944 81.7084 108.089 81.7084 113.563 78.7921C116.483 77.334 117.943 75.5114 117.578 73.3242Z"
        fill="#0065CD" />
    <path d="M67.9454 70.7788V88.6408L62.8359 81.7146V63.4883L67.9454 70.7788Z" fill="#0058B4" />
    <path d="M146.78 64.2148V82.0767L141.67 89.7318V71.5054L146.78 64.2148Z" fill="#9CCDFF" />
    <path d="M65.3931 89.0034V106.865L52.9844 103.949V85.7227L65.3931 89.0034Z" fill="#0058B4" />
    <path d="M155.907 86.8164V104.678L142.769 107.594L140.214 97.3877L143.134 89.7326L155.907 86.8164Z"
        fill="#389AFF" />
    <path
        d="M67.2203 91.5556V109.417C66.4904 108.688 66.1254 107.595 65.3955 106.866V89.0039C66.1254 89.733 66.4904 90.4621 67.2203 91.5556Z"
        fill="#0065CD" />
    <path
        d="M143.129 89.7305V107.592C142.399 108.321 142.034 109.415 141.304 110.144V92.2822C141.669 91.5532 142.399 90.8241 143.129 89.7305Z"
        fill="#0065CD" />
    <path
        d="M90.2107 103.945V121.807C88.7508 121.442 87.2909 121.078 85.8311 120.713V102.852C87.2909 103.216 88.7508 103.581 90.2107 103.945Z"
        fill="#0065CD" />
    <path
        d="M121.598 103.219V121.081C120.138 121.445 118.679 121.81 117.219 122.174V104.312C118.679 103.948 120.138 103.583 121.598 103.219Z"
        fill="#0065CD" />
    <path d="M85.8336 102.492V120.719L73.4248 123.635V105.773L85.8336 102.492Z" fill="#389AFF" />
    <path d="M73.425 105.766V123.628L61.7461 117.066L62.1111 98.8398L73.425 105.766Z" fill="#0058B4" />
    <path d="M134.733 106.135V123.997L121.595 121.081V103.219L134.733 106.135Z" fill="#0058B4" />
    <path d="M146.052 99.5742V117.436L134.738 123.998V106.136L146.052 99.5742Z" fill="#9CCDFF" />
    <path d="M117.219 103.949V122.176L112.109 129.102V111.24L117.219 103.949Z" fill="#9CCDFF" />
    <path d="M95.6874 111.24V129.102L90.2129 121.811V103.949L95.6874 111.24Z" fill="#0058B4" />
    <path d="M112.111 111.238V129.1H95.6875V111.238H112.111Z" fill="#389AFF" />
    <path
        d="M146.781 64.2155L141.307 71.5061C142.037 72.2351 142.402 73.3287 143.132 74.0578L155.541 76.974V86.4517L142.767 89.3679C142.037 90.097 141.672 91.1906 140.942 91.9197L146.051 99.2102L134.373 105.772L121.599 102.856C120.139 103.22 118.679 103.585 117.219 103.949L112.11 111.24H95.6865L90.212 103.949C88.7521 103.585 87.2922 103.22 85.8324 102.856L73.4236 105.772L62.1097 98.8457L67.5842 91.5551C66.8542 90.8261 66.4893 89.7324 65.7593 89.0034L53.3506 86.0872V76.6094L66.1243 73.3287C66.8543 72.5997 67.2192 71.5061 67.9492 70.777L62.8397 63.4865L74.5185 56.925L87.2922 59.8412C88.7521 59.4767 90.212 59.1121 92.0368 58.7476L97.1463 51.457H113.57L119.044 59.1121C120.504 59.4767 121.964 59.8412 123.424 60.2057L135.833 57.2895L146.781 64.2155Z"
        fill="#7DBDFF" />
    <path
        d="M112.107 85.3577C108.093 87.9094 101.158 87.9094 97.1438 85.3577C93.1292 82.806 93.1292 79.1608 97.1438 76.6091C101.158 74.0574 108.093 74.0574 112.107 76.6091C116.122 78.7963 116.122 82.806 112.107 85.3577Z"
        fill="#0065CD" />
</svg>