<svg xmlns="http://www.w3.org/2000/svg" version="1.0" width="22" height="22"
    viewBox="0 0 1600.000000 1600.000000" preserveAspectRatio="xMidYMid meet">

    <g transform="translate(0.000000,1600.000000) scale(0.100000,-0.100000)" fill="#ffffff"
        stroke="none">
        <path
            d="M7510 14410 c-1147 -78 -2181 -428 -3120 -1055 -959 -640 -1746 -1558 -2226 -2597 -515 -1114 -695 -2348 -518 -3568 103 -713 337 -1424 676 -2053 958 -1781 2684 -2995 4668 -3282 332 -48 506 -59 910 -59 401 0 550 10 900 60 1115 160 2155 611 3045 1322 222 177 286 252 325 380 27 87 27 227 0 314 -80 259 -365 420 -625 353 -94 -24 -152 -57 -265 -151 -322 -266 -649 -483 -1005 -664 -1309 -665 -2857 -749 -4240 -230 -555 208 -1067 508 -1540 903 -154 129 -503 478 -626 627 -201 242 -369 481 -523 743 -785 1340 -931 2994 -396 4462 491 1343 1514 2434 2826 3011 1288 566 2779 589 4089 62 507 -204 986 -492 1425 -858 162 -135 498 -471 630 -630 530 -638 885 -1332 1079 -2109 62 -250 131 -638 131 -742 0 -19 -13 -19 -775 -19 l-775 0 1050 -1575 c578 -866 1052 -1575 1055 -1575 3 0 477 709 1055 1575 l1050 1575 -803 0 -803 0 -12 124 c-160 1613 -973 3139 -2232 4194 -388 324 -785 583 -1250 815 -703 351 -1406 551 -2220 632 -182 19 -774 28 -960 15z" />
        <path
            d="M7680 11779 c-872 -90 -1610 -730 -1825 -1584 -58 -230 -65 -329 -65 -982 l0 -583 -33 0 c-103 0 -234 -59 -329 -148 -85 -80 -142 -188 -158 -297 -13 -95 -14 -2706 0 -2795 28 -178 168 -346 345 -413 l60 -22 2190 -3 c1628 -2 2204 0 2245 8 183 39 339 185 397 375 17 57 18 129 18 1455 l0 1395 -22 70 c-42 132 -151 264 -266 319 -121 59 -25 56 -1784 56 l-1613 0 0 548 c0 562 5 658 41 792 30 114 117 282 196 380 217 269 576 417 921 380 179 -19 323 -70 471 -166 168 -110 314 -290 395 -487 63 -153 83 -186 151 -253 176 -172 445 -199 652 -65 166 107 262 314 235 503 -13 90 -59 215 -138 371 -286 569 -832 988 -1449 1112 -216 43 -429 55 -635 34z" />
    </g>
    <style xmlns="" class="darkreader darkreader--fallback">html, body, body :not(iframe) {
        background-color: #181a1b !important;
        border-color: #776e62 !important;
        color: #e8e6e3 !important;
        }</style>
</svg>